<svg xmlns="http://www.w3.org/2000/svg" width="54.667" height="54.667" viewBox="0 0 54.667 54.667">
  <g id="balance" transform="translate(0)">
    <path id="Caminho_3" data-name="Caminho 3" d="M51.464,12.919v-3.2h-19.6a4.827,4.827,0,0,0-2.928-2.928V0h-3.2V6.789A4.827,4.827,0,0,0,22.8,9.716H3.2v3.2h4L0,30.216v.32a8.017,8.017,0,0,0,8.008,8.008h3.2a8.017,8.017,0,0,0,8.008-8.008v-.32l-7.207-17.3H22.8a4.827,4.827,0,0,0,2.928,2.928V38.812a8.029,8.029,0,0,0-6.27,6.382,8.019,8.019,0,0,0-6.543,7.871v1.6H41.748v-1.6A8.02,8.02,0,0,0,35.2,45.194a8.029,8.029,0,0,0-6.27-6.382V15.847a4.827,4.827,0,0,0,2.928-2.928H42.655l-7.207,17.3v.32a8.017,8.017,0,0,0,8.008,8.008h3.2a8.017,8.017,0,0,0,8.008-8.008v-.32l-7.207-17.3ZM9.609,15.482l5.606,13.453H4Zm1.6,19.859h-3.2a4.812,4.812,0,0,1-4.529-3.2H15.74A4.812,4.812,0,0,1,11.211,35.341ZM45.058,15.482l5.606,13.453H39.452Zm1.6,19.859h-3.2a4.812,4.812,0,0,1-4.529-3.2H51.188A4.812,4.812,0,0,1,46.659,35.341ZM38.27,51.464H16.4a4.813,4.813,0,0,1,4.53-3.2H33.74A4.813,4.813,0,0,1,38.27,51.464Zm-6.407-6.406H22.8a4.8,4.8,0,0,1,9.058,0ZM27.333,12.919a1.6,1.6,0,1,1,1.6-1.6,1.6,1.6,0,0,1-1.6,1.6Z" fill="#da3d06"/>
  </g>
</svg>
