<svg xmlns="http://www.w3.org/2000/svg" width="63.333" height="63.334" viewBox="0 0 63.333 63.334">
  <g id="book" transform="translate(-0.002 0)">
    <g id="Grupo_3004" data-name="Grupo 3004" transform="translate(0.002 0)">
      <g id="Grupo_3003" data-name="Grupo 3003" transform="translate(0)">
        <path id="Caminho_2051" data-name="Caminho 2051" d="M290.245,202.024a1.057,1.057,0,0,0,1.421.461,90.492,90.492,0,0,1,9.34-4.156,1.056,1.056,0,0,0-.638-2.014,90.533,90.533,0,0,0-9.66,4.289A1.056,1.056,0,0,0,290.245,202.024Z" transform="translate(-254.242 -171.989)"/>
        <path id="Caminho_2052" data-name="Caminho 2052" d="M291.187,100.2a1.054,1.054,0,0,0,.478-.115,90.491,90.491,0,0,1,9.34-4.156,1.056,1.056,0,0,0-.638-2.014,90.534,90.534,0,0,0-9.66,4.289,1.055,1.055,0,0,0,.48,2Z" transform="translate(-254.242 -82.256)"/>
        <path id="Caminho_2053" data-name="Caminho 2053" d="M62.28,15.834a1.055,1.055,0,0,0-1.056,1.056V58.056a3.171,3.171,0,0,1-3.167,3.167H32.724V58.794A31.106,31.106,0,0,1,42.224,57a54.446,54.446,0,0,1,15.5,2.057,1.055,1.055,0,0,0,1.388-1V11.612a1.054,1.054,0,0,0-.827-1.03s-.828-.185-2.242-.444a1.056,1.056,0,0,0-.382,2.076c.539.1.991.187,1.34.257V56.653a59.612,59.612,0,0,0-14.778-1.764A33.161,33.161,0,0,0,31.71,56.912a24.728,24.728,0,0,0-9.541-2.022A71.132,71.132,0,0,0,6.335,56.7V12.428a69.48,69.48,0,0,1,15.833-1.873,22.886,22.886,0,0,1,8.444,1.74V53.834a1.055,1.055,0,0,0,1.6.9c.1-.062,10.563-6.309,19.845-9.4a1.056,1.056,0,0,0,.722-1V1.056A1.057,1.057,0,0,0,51.353.067,112.286,112.286,0,0,0,34.276,8.605a1.056,1.056,0,0,0,1.119,1.79A112.82,112.82,0,0,1,50.669,2.6V43.578A118.292,118.292,0,0,0,32.724,52V11.612a1.057,1.057,0,0,0-.584-.945,24.442,24.442,0,0,0-9.972-2.222A68.508,68.508,0,0,0,4.989,10.6a1.055,1.055,0,0,0-.765,1.014V58.056A1.055,1.055,0,0,0,5.28,59.112a1.04,1.04,0,0,0,.289-.041A67.806,67.806,0,0,1,22.169,57a22.835,22.835,0,0,1,8.444,1.741v2.482H5.28a3.171,3.171,0,0,1-3.167-3.167V16.889a1.056,1.056,0,1,0-2.111,0V58.056A5.284,5.284,0,0,0,5.28,63.334H58.058a5.284,5.284,0,0,0,5.278-5.278V16.889A1.055,1.055,0,0,0,62.28,15.834Z" transform="translate(-0.002 0)"/>
        <path id="Caminho_2054" data-name="Caminho 2054" d="M290.245,150.824a1.057,1.057,0,0,0,1.421.461,90.5,90.5,0,0,1,9.34-4.156,1.056,1.056,0,0,0-.638-2.014,90.533,90.533,0,0,0-9.66,4.289A1.056,1.056,0,0,0,290.245,150.824Z" transform="translate(-254.242 -127.122)"/>
        <path id="Caminho_2055" data-name="Caminho 2055" d="M290.245,253.224a1.057,1.057,0,0,0,1.421.461,90.5,90.5,0,0,1,9.34-4.156,1.056,1.056,0,0,0-.638-2.014,90.532,90.532,0,0,0-9.66,4.289A1.056,1.056,0,0,0,290.245,253.224Z" transform="translate(-254.242 -216.855)"/>
        <path id="Caminho_2056" data-name="Caminho 2056" d="M100.352,154.229c-6.518-1.53-13.925.419-14.236.5a1.056,1.056,0,0,0,.272,2.075,1.073,1.073,0,0,0,.274-.036c.071-.02,7.2-1.9,13.208-.487a1.055,1.055,0,1,0,.481-2.055Z" transform="translate(-74.778 -134.639)"/>
        <path id="Caminho_2057" data-name="Caminho 2057" d="M100.352,205.432c-6.518-1.528-13.925.419-14.236.5a1.056,1.056,0,0,0,.272,2.075,1.073,1.073,0,0,0,.274-.036c.071-.02,7.2-1.9,13.208-.487a1.055,1.055,0,1,0,.481-2.055Z" transform="translate(-74.778 -179.509)"/>
        <path id="Caminho_2058" data-name="Caminho 2058" d="M290.245,304.424a1.057,1.057,0,0,0,1.421.461,90.5,90.5,0,0,1,9.34-4.156,1.056,1.056,0,0,0-.638-2.014,90.541,90.541,0,0,0-9.66,4.289A1.056,1.056,0,0,0,290.245,304.424Z" transform="translate(-254.242 -261.722)"/>
        <path id="Caminho_2059" data-name="Caminho 2059" d="M100.352,256.631c-6.518-1.528-13.925.418-14.236.5a1.056,1.056,0,0,0,.272,2.076,1.069,1.069,0,0,0,.274-.037c.071-.02,7.2-1.9,13.208-.487a1.055,1.055,0,1,0,.481-2.055Z" transform="translate(-74.778 -224.374)"/>
        <path id="Caminho_2060" data-name="Caminho 2060" d="M100.352,359.029c-6.518-1.53-13.925.419-14.236.5a1.056,1.056,0,0,0,.272,2.076,1.069,1.069,0,0,0,.274-.037c.071-.02,7.2-1.9,13.208-.487a1.055,1.055,0,1,0,.481-2.055Z" transform="translate(-74.778 -314.106)"/>
        <path id="Caminho_2061" data-name="Caminho 2061" d="M100.352,307.827c-6.518-1.53-13.925.418-14.236.5a1.056,1.056,0,0,0,.272,2.076,1.07,1.07,0,0,0,.274-.037c.071-.02,7.2-1.9,13.208-.487a1.055,1.055,0,1,0,.481-2.055Z" transform="translate(-74.778 -269.238)"/>
      </g>
    </g>
  </g>
</svg>
