<svg id="calculations" xmlns="http://www.w3.org/2000/svg" width="73.333" height="73.333" viewBox="0 0 73.333 73.333">
  <path id="Caminho_2062" data-name="Caminho 2062" d="M69.785,23.656H68.6V9.462H11.828V0H5.914A5.921,5.921,0,0,0,0,5.914V50.86a5.921,5.921,0,0,0,5.914,5.914H37.85V69.785A3.553,3.553,0,0,0,41.4,73.333H69.785a3.553,3.553,0,0,0,3.548-3.548V27.2A3.553,3.553,0,0,0,69.785,23.656ZM2.366,5.914A3.553,3.553,0,0,1,5.914,2.366H9.462V44.946H5.914a5.891,5.891,0,0,0-3.548,1.185ZM5.914,54.409a3.548,3.548,0,0,1,0-7.1h5.914V11.828H66.237V23.656H41.765a14.206,14.206,0,1,0-3.915,15.295V54.409ZM37.85,27.2H29.57V16.626a11.87,11.87,0,0,1,9.9,7.61A3.541,3.541,0,0,0,37.85,27.2ZM27.2,40.155a11.827,11.827,0,0,1,0-23.536ZM29.57,29.57h8.28v5.888a11.836,11.836,0,0,1-8.28,4.685Zm41.4,40.215a1.185,1.185,0,0,1-1.183,1.183H41.4a1.185,1.185,0,0,1-1.183-1.183V27.2A1.185,1.185,0,0,1,41.4,26.022H69.785A1.185,1.185,0,0,1,70.968,27.2Zm0,0"/>
  <path id="Caminho_2063" data-name="Caminho 2063" d="M288,203.828h26.022V192H288Zm2.366-9.462h21.29v7.1h-21.29Zm0,0" transform="translate(-245.419 -163.613)"/>
  <path id="Caminho_2064" data-name="Caminho 2064" d="M416,423.1h7.1V416H416Zm2.366-4.731h2.366v2.366h-2.366Zm0,0" transform="translate(-354.494 -354.494)"/>
  <path id="Caminho_2065" data-name="Caminho 2065" d="M352,423.1h7.1V416H352Zm2.366-4.731h2.366v2.366h-2.366Zm0,0" transform="translate(-299.957 -354.494)"/>
  <path id="Caminho_2066" data-name="Caminho 2066" d="M288,423.1h7.1V416H288Zm2.366-4.731h2.366v2.366h-2.366Zm0,0" transform="translate(-245.419 -354.494)"/>
  <path id="Caminho_2067" data-name="Caminho 2067" d="M416,359.1h7.1V352H416Zm2.366-4.731h2.366v2.366h-2.366Zm0,0" transform="translate(-354.494 -299.957)"/>
  <path id="Caminho_2068" data-name="Caminho 2068" d="M352,359.1h7.1V352H352Zm2.366-4.731h2.366v2.366h-2.366Zm0,0" transform="translate(-299.957 -299.957)"/>
  <path id="Caminho_2069" data-name="Caminho 2069" d="M288,359.1h7.1V352H288Zm2.366-4.731h2.366v2.366h-2.366Zm0,0" transform="translate(-245.419 -299.957)"/>
  <path id="Caminho_2070" data-name="Caminho 2070" d="M416,295.1h7.1V288H416Zm2.366-4.731h2.366v2.366h-2.366Zm0,0" transform="translate(-354.494 -245.419)"/>
  <path id="Caminho_2071" data-name="Caminho 2071" d="M352,295.1h7.1V288H352Zm2.366-4.731h2.366v2.366h-2.366Zm0,0" transform="translate(-299.957 -245.419)"/>
  <path id="Caminho_2072" data-name="Caminho 2072" d="M288,295.1h7.1V288H288Zm2.366-4.731h2.366v2.366h-2.366Zm0,0" transform="translate(-245.419 -245.419)"/>
  <path id="Caminho_2073" data-name="Caminho 2073" d="M320,96h16.559v2.366H320Zm0,0" transform="translate(-272.688 -81.806)"/>
  <path id="Caminho_2074" data-name="Caminho 2074" d="M304,128h18.925v2.366H304Zm0,0" transform="translate(-259.054 -109.075)"/>
</svg>
