<svg xmlns="http://www.w3.org/2000/svg" width="61.667" height="50.586" viewBox="0 0 61.667 50.586">
  <g id="camera" transform="translate(0 -46)">
    <g id="Grupo_3006" data-name="Grupo 3006" transform="translate(47.213 60.453)">
      <g id="Grupo_3005" data-name="Grupo 3005">
        <path id="Caminho_2075" data-name="Caminho 2075" d="M393.2,166a1.2,1.2,0,1,0,1.2,1.2A1.2,1.2,0,0,0,393.2,166Z" transform="translate(-392 -166)"/>
      </g>
    </g>
    <g id="Grupo_3008" data-name="Grupo 3008" transform="translate(0 46)">
      <g id="Grupo_3007" data-name="Grupo 3007">
        <path id="Caminho_2076" data-name="Caminho 2076" d="M58.053,55.635H44.826L41.008,48a3.594,3.594,0,0,0-3.232-2H23.891a3.594,3.594,0,0,0-3.232,2L16.84,55.635H14.453v-1.2a3.617,3.617,0,0,0-3.613-3.613H8.431a3.617,3.617,0,0,0-3.613,3.613v1.2h-1.2A3.617,3.617,0,0,0,0,59.249V92.973a3.617,3.617,0,0,0,3.613,3.613h54.44a3.617,3.617,0,0,0,3.613-3.613V59.249A3.617,3.617,0,0,0,58.053,55.635Zm-35.24-6.56a1.2,1.2,0,0,1,1.077-.666H37.776a1.2,1.2,0,0,1,1.077.666l3.28,6.56h-22.6ZM7.227,54.431a1.206,1.206,0,0,1,1.2-1.2H10.84a1.206,1.206,0,0,1,1.2,1.2v1.2H7.227ZM2.409,67.668h15.23a15.681,15.681,0,0,0,0,16.874H2.409Zm28.424-4.806A13.249,13.249,0,1,1,17.585,76.111,13.255,13.255,0,0,1,30.833,62.862ZM59.258,92.973a1.206,1.206,0,0,1-1.2,1.2H3.613a1.206,1.206,0,0,1-1.2-1.2V86.95h17.13a15.648,15.648,0,0,0,22.589,0h17.13Zm0-8.431H44.028a15.66,15.66,0,0,0,0-16.862h15.23Zm0-19.271H42.128a15.648,15.648,0,0,0-22.589,0H2.409V59.249a1.206,1.206,0,0,1,1.2-1.2h54.44a1.206,1.206,0,0,1,1.2,1.2Z" transform="translate(0 -46)"/>
      </g>
    </g>
    <g id="Grupo_3010" data-name="Grupo 3010" transform="translate(26.016 50.818)">
      <g id="Grupo_3009" data-name="Grupo 3009">
        <path id="Caminho_2077" data-name="Caminho 2077" d="M224.431,86H217.2a1.2,1.2,0,0,0,0,2.409h7.227a1.2,1.2,0,0,0,0-2.409Z" transform="translate(-216 -86)"/>
      </g>
    </g>
    <g id="Grupo_3012" data-name="Grupo 3012" transform="translate(19.993 65.271)">
      <g id="Grupo_3011" data-name="Grupo 3011">
        <path id="Caminho_2078" data-name="Caminho 2078" d="M176.84,206a10.84,10.84,0,1,0,10.84,10.84A10.852,10.852,0,0,0,176.84,206Zm0,19.271a8.431,8.431,0,1,1,8.431-8.431A8.441,8.441,0,0,1,176.84,225.271Z" transform="translate(-166 -206)"/>
      </g>
    </g>
    <g id="Grupo_3014" data-name="Grupo 3014" transform="translate(24.811 70.088)">
      <g id="Grupo_3013" data-name="Grupo 3013">
        <path id="Caminho_2079" data-name="Caminho 2079" d="M212.022,246A6.029,6.029,0,0,0,206,252.022a1.2,1.2,0,0,0,2.409,0,3.617,3.617,0,0,1,3.613-3.613,1.2,1.2,0,1,0,0-2.409Z" transform="translate(-206 -246)"/>
      </g>
    </g>
    <g id="Grupo_3016" data-name="Grupo 3016" transform="translate(52.031 60.453)">
      <g id="Grupo_3015" data-name="Grupo 3015">
        <path id="Caminho_2080" data-name="Caminho 2080" d="M435.613,166H433.2a1.2,1.2,0,0,0,0,2.409h2.409a1.2,1.2,0,1,0,0-2.409Z" transform="translate(-432 -166)"/>
      </g>
    </g>
  </g>
</svg>
