<svg xmlns="http://www.w3.org/2000/svg" width="63" height="53.31" viewBox="0 0 63 53.31">
  <g id="care" transform="translate(0 -31.992)">
    <g id="Grupo_3024" data-name="Grupo 3024" transform="translate(15.068 31.992)">
      <g id="Grupo_3023" data-name="Grupo 3023">
        <path id="Caminho_2088" data-name="Caminho 2088" d="M129.524,34.35c-3.189-3-8.653-3.69-13.6,1.253-4.936-4.938-10.407-4.257-13.6-1.255a9,9,0,0,0-.2,12.927l13.795,13.8,13.795-13.795A9,9,0,0,0,129.524,34.35ZM128.01,45.561,115.928,57.645,103.847,45.564a6.576,6.576,0,0,1,.148-9.45,6.311,6.311,0,0,1,4.366-1.7c3.47,0,5.03,2.074,7.567,4.611,2.469-2.469,4.059-4.611,7.567-4.611a6.33,6.33,0,0,1,4.369,1.694A6.576,6.576,0,0,1,128.01,45.561Z" transform="translate(-99.496 -31.992)"/>
      </g>
    </g>
    <g id="Grupo_3026" data-name="Grupo 3026" transform="translate(36.346 34.418)">
      <g id="Grupo_3025" data-name="Grupo 3025" transform="translate(0 0)">
        <path id="Caminho_2089" data-name="Caminho 2089" d="M262.513,48.009a4.125,4.125,0,0,0-4.119,3.722L256.86,66.878a3.89,3.89,0,0,0-1.943,1.042L242.677,79.313A8.229,8.229,0,0,0,240,85.322V98.894h14.538V92.506a3.668,3.668,0,0,1,1.165-2.658l9.2-9.28a6.027,6.027,0,0,0,1.754-4.265V52.15A4.147,4.147,0,0,0,262.513,48.009ZM264.231,76.3a3.618,3.618,0,0,1-1.054,2.561l-9.167,9.251a6.068,6.068,0,0,0-1.895,4.391v3.964h-9.692V85.337a5.789,5.789,0,0,1,1.9-4.236L256.6,69.666a1.6,1.6,0,0,1,2.227,0,1.57,1.57,0,0,1,.463,1.115,1.55,1.55,0,0,1-.422,1.073l-9.452,8.573,1.628,1.793,9.5-8.614a4,4,0,0,0,0-5.653,3.866,3.866,0,0,0-1.267-.855l1.529-15.12a1.719,1.719,0,0,1,3.429.172V76.3Z" transform="translate(-240 -48.009)"/>
      </g>
    </g>
    <g id="Grupo_3028" data-name="Grupo 3028" transform="translate(0 34.418)">
      <g id="Grupo_3027" data-name="Grupo 3027" transform="translate(0 0)">
        <path id="Caminho_2090" data-name="Caminho 2090" d="M23.976,79.313,11.737,67.919a3.871,3.871,0,0,0-1.943-1.042L8.26,51.731A4.141,4.141,0,0,0,0,52.15V76.3a6.017,6.017,0,0,0,1.754,4.262l9.2,9.28a3.674,3.674,0,0,1,1.165,2.661v6.387H26.654V85.322A8.224,8.224,0,0,0,23.976,79.313Zm.254,17.158H14.538V92.506a6.072,6.072,0,0,0-1.895-4.391L3.477,78.864A3.618,3.618,0,0,1,2.423,76.3V52.15a1.719,1.719,0,0,1,3.429-.177l1.529,15.12A4,4,0,0,0,6.116,73.6l9.5,8.614,1.628-1.793L7.788,71.85a1.535,1.535,0,0,1-.422-1.073,1.565,1.565,0,0,1,.463-1.115,1.6,1.6,0,0,1,2.227,0L22.333,81.1a5.789,5.789,0,0,1,1.9,4.236V96.471Z" transform="translate(0 -48.009)"/>
      </g>
    </g>
  </g>
</svg>
