<svg xmlns="http://www.w3.org/2000/svg" width="52.329" height="52.333" viewBox="0 0 52.329 52.333">
  <g id="contract" transform="translate(-0.018)">
    <g id="Grupo_2852" data-name="Grupo 2852" transform="translate(0.018)">
      <g id="Grupo_2851" data-name="Grupo 2851">
        <path id="Caminho_2006" data-name="Caminho 2006" d="M51,16.469a4.605,4.605,0,0,0-6.505,0l-4.613,4.617V8.936a4.569,4.569,0,0,0-1.347-3.252L34.2,1.347A4.569,4.569,0,0,0,30.945,0H4.618a4.6,4.6,0,0,0-4.6,4.6V47.733a4.6,4.6,0,0,0,4.6,4.6H35.281a4.6,4.6,0,0,0,4.6-4.6V34.1L51,22.974A4.6,4.6,0,0,0,51,16.469ZM30.682,3.066a1.673,1.673,0,0,1,1.347.449l4.336,4.337A1.673,1.673,0,0,1,36.815,9.2H30.682Zm6.133,44.667a1.535,1.535,0,0,1-1.533,1.533H4.618a1.535,1.535,0,0,1-1.533-1.533V4.6A1.535,1.535,0,0,1,4.618,3.066h23v7.666a1.533,1.533,0,0,0,1.533,1.533h7.666v11.89l-4.524,4.527L30.124,30.85a1.533,1.533,0,0,0-.37.6l-2.168,6.5a1.533,1.533,0,0,0,1.939,1.939l6.5-2.168a1.532,1.532,0,0,0,.6-.37l.186-.186V47.733Zm-3.438-15.8L35.544,34.1l-.828.828-3.252,1.084,1.084-3.252Zm4.336,0-2.168-2.168,7.37-7.376,2.168,2.168ZM48.83,20.806,47.25,22.388,45.082,20.22l1.581-1.582a1.533,1.533,0,1,1,2.168,2.169Z" transform="translate(-0.018)" fill="#da3d06"/>
      </g>
    </g>
    <g id="Grupo_2854" data-name="Grupo 2854" transform="translate(6.151 15.332)">
      <g id="Grupo_2853" data-name="Grupo 2853">
        <path id="Caminho_2007" data-name="Caminho 2007" d="M83.016,150H61.551a1.533,1.533,0,1,0,0,3.066H83.016a1.533,1.533,0,0,0,0-3.066Z" transform="translate(-60.018 -150)" fill="#da3d06"/>
      </g>
    </g>
    <g id="Grupo_2856" data-name="Grupo 2856" transform="translate(6.151 21.465)">
      <g id="Grupo_2855" data-name="Grupo 2855">
        <path id="Caminho_2008" data-name="Caminho 2008" d="M76.883,210H61.551a1.533,1.533,0,1,0,0,3.066H76.883a1.533,1.533,0,1,0,0-3.066Z" transform="translate(-60.018 -210)" fill="#da3d06"/>
      </g>
    </g>
    <g id="Grupo_2858" data-name="Grupo 2858" transform="translate(6.151 27.597)">
      <g id="Grupo_2857" data-name="Grupo 2857">
        <path id="Caminho_2009" data-name="Caminho 2009" d="M76.883,270H61.551a1.533,1.533,0,0,0,0,3.066H76.883a1.533,1.533,0,0,0,0-3.066Z" transform="translate(-60.018 -270)" fill="#da3d06"/>
      </g>
    </g>
    <g id="Grupo_2860" data-name="Grupo 2860" transform="translate(6.151 33.73)">
      <g id="Grupo_2859" data-name="Grupo 2859">
        <path id="Caminho_2010" data-name="Caminho 2010" d="M76.883,330H61.551a1.533,1.533,0,1,0,0,3.066H76.883a1.533,1.533,0,1,0,0-3.066Z" transform="translate(-60.018 -330)" fill="#da3d06"/>
      </g>
    </g>
    <g id="Grupo_2862" data-name="Grupo 2862" transform="translate(18.416 43.134)">
      <g id="Grupo_2861" data-name="Grupo 2861">
        <path id="Caminho_2011" data-name="Caminho 2011" d="M190.75,422h-9.2a1.533,1.533,0,0,0,0,3.066h9.2a1.533,1.533,0,0,0,0-3.066Z" transform="translate(-180.018 -422)" fill="#da3d06"/>
      </g>
    </g>
  </g>
</svg>
