<svg xmlns="http://www.w3.org/2000/svg" width="49.268" height="62.233" viewBox="0 0 49.268 62.233">
  <g id="document" transform="translate(-53.333)">
    <g id="Grupo_3083" data-name="Grupo 3083" transform="translate(61.112 7.779)">
      <g id="Grupo_3082" data-name="Grupo 3082">
        <rect id="Retângulo_1019" data-name="Retângulo 1019" width="12.965" height="2.593" fill="#da3d06"/>
      </g>
    </g>
    <g id="Grupo_3085" data-name="Grupo 3085" transform="translate(61.112 12.965)">
      <g id="Grupo_3084" data-name="Grupo 3084">
        <rect id="Retângulo_1020" data-name="Retângulo 1020" width="2.593" height="2.593" fill="#da3d06"/>
      </g>
    </g>
    <g id="Grupo_3087" data-name="Grupo 3087" transform="translate(66.298 12.965)">
      <g id="Grupo_3086" data-name="Grupo 3086">
        <rect id="Retângulo_1021" data-name="Retângulo 1021" width="2.593" height="2.593" fill="#da3d06"/>
      </g>
    </g>
    <g id="Grupo_3089" data-name="Grupo 3089" transform="translate(53.333)">
      <g id="Grupo_3088" data-name="Grupo 3088">
        <path id="Caminho_2114" data-name="Caminho 2114" d="M102.221,10.752,91.849.38A1.3,1.3,0,0,0,90.932,0H57.223a3.89,3.89,0,0,0-3.89,3.89V58.344a3.89,3.89,0,0,0,3.89,3.89H98.711a3.89,3.89,0,0,0,3.89-3.89V11.669A1.3,1.3,0,0,0,102.221,10.752Zm-2.213,47.592a1.3,1.3,0,0,1-1.3,1.3H57.223a1.3,1.3,0,0,1-1.3-1.3V3.89a1.3,1.3,0,0,1,1.3-1.3H90.4l9.613,9.613Z" transform="translate(-53.333)" fill="#da3d06"/>
      </g>
    </g>
    <g id="Grupo_3091" data-name="Grupo 3091" transform="translate(89.636 1.296)">
      <g id="Grupo_3090" data-name="Grupo 3090">
        <path id="Caminho_2115" data-name="Caminho 2115" d="M355.89,19.742a1.3,1.3,0,0,1-1.3-1.3V10.666H352v7.779a3.89,3.89,0,0,0,3.89,3.89h2.593V19.742Z" transform="translate(-352 -10.666)" fill="#da3d06"/>
      </g>
    </g>
    <g id="Grupo_3093" data-name="Grupo 3093" transform="translate(92.229 44.082)">
      <g id="Grupo_3092" data-name="Grupo 3092">
        <rect id="Retângulo_1022" data-name="Retângulo 1022" width="2.593" height="2.593" fill="#da3d06"/>
      </g>
    </g>
    <g id="Grupo_3095" data-name="Grupo 3095" transform="translate(87.043 44.082)">
      <g id="Grupo_3094" data-name="Grupo 3094">
        <rect id="Retângulo_1023" data-name="Retângulo 1023" width="2.593" height="2.593" fill="#da3d06"/>
      </g>
    </g>
    <g id="Grupo_3097" data-name="Grupo 3097" transform="translate(61.112 44.082)">
      <g id="Grupo_3096" data-name="Grupo 3096">
        <rect id="Retângulo_1024" data-name="Retângulo 1024" width="20.745" height="2.593" fill="#da3d06"/>
      </g>
    </g>
    <g id="Grupo_3099" data-name="Grupo 3099" transform="translate(61.112 50.565)">
      <g id="Grupo_3098" data-name="Grupo 3098">
        <rect id="Retângulo_1025" data-name="Retângulo 1025" width="33.71" height="2.593" fill="#da3d06"/>
      </g>
    </g>
    <g id="Grupo_3100" data-name="Grupo 3100" transform="translate(61.112 37.565)">
      <g id="Grupo_3098-2" data-name="Grupo 3098">
        <rect id="Retângulo_1025-2" data-name="Retângulo 1025" width="33.71" height="2.593" fill="#da3d06"/>
      </g>
    </g>
    <g id="Grupo_3101" data-name="Grupo 3101" transform="translate(61.112 30.565)">
      <g id="Grupo_3098-3" data-name="Grupo 3098">
        <rect id="Retângulo_1025-3" data-name="Retângulo 1025" width="33.71" height="2.593" fill="#da3d06"/>
      </g>
    </g>
    <g id="Grupo_3102" data-name="Grupo 3102" transform="translate(61.112 23.565)">
      <g id="Grupo_3098-4" data-name="Grupo 3098">
        <rect id="Retângulo_1025-4" data-name="Retângulo 1025" width="33.71" height="2.593" fill="#da3d06"/>
      </g>
    </g>
  </g>
</svg>
