<svg xmlns="http://www.w3.org/2000/svg" width="15.083" height="16.089" viewBox="0 0 15.083 16.089">
  <g id="download_2_" data-name="download (2)" transform="translate(-16)">
    <g id="Grupo_3034" data-name="Grupo 3034" transform="translate(19.519)">
      <g id="Grupo_3033" data-name="Grupo 3033" transform="translate(0)">
        <path id="Caminho_2095" data-name="Caminho 2095" d="M136,7.333a.5.5,0,0,0-.458-.295h-2.011V.5a.5.5,0,0,0-.5-.5h-2.011a.5.5,0,0,0-.5.5V7.039H128.5a.5.5,0,0,0-.378.834l3.519,4.022a.5.5,0,0,0,.756,0l3.519-4.022A.5.5,0,0,0,136,7.333Z" transform="translate(-127.998)" fill="#fff"/>
      </g>
    </g>
    <g id="Grupo_3036" data-name="Grupo 3036" transform="translate(16 11.061)">
      <g id="Grupo_3035" data-name="Grupo 3035" transform="translate(0)">
        <path id="Caminho_2096" data-name="Caminho 2096" d="M29.072,352v3.017H18.011V352H16v4.022a1,1,0,0,0,1.006,1.006H30.078a1,1,0,0,0,1.006-1.006V352Z" transform="translate(-16 -352)" fill="#fff"/>
      </g>
    </g>
  </g>
</svg>
