<svg id="facebook-logo" xmlns="http://www.w3.org/2000/svg" width="7.427" height="13.737" viewBox="0 0 7.427 13.737">
  <path id="Caminho_11" data-name="Caminho 11" d="M29.224,0,27.443,0a3.128,3.128,0,0,0-3.295,3.381V4.939H22.357a.28.28,0,0,0-.28.28V7.478a.28.28,0,0,0,.28.28h1.791v5.7a.28.28,0,0,0,.28.28h2.337a.28.28,0,0,0,.28-.28v-5.7h2.094a.28.28,0,0,0,.28-.28V5.219a.28.28,0,0,0-.28-.28H27.045V3.618c0-.635.151-.957.979-.957h1.2a.28.28,0,0,0,.28-.28V.283A.28.28,0,0,0,29.224,0Z" transform="translate(-22.077)" fill="#202a5c"/>
</svg>
