<svg xmlns="http://www.w3.org/2000/svg" width="41.282" height="54.196" viewBox="0 0 41.282 54.196">
  <g id="google-docs" transform="translate(-61)">
    <path id="Caminho_2001" data-name="Caminho 2001" d="M101.817,13.167,89.115.465A1.59,1.59,0,0,0,87.992,0H65.763A4.769,4.769,0,0,0,61,4.763v44.67A4.769,4.769,0,0,0,65.763,54.2H97.519a4.769,4.769,0,0,0,4.763-4.763V14.29A1.6,1.6,0,0,0,101.817,13.167ZM89.58,5.421,96.861,12.7H91.168a1.59,1.59,0,0,1-1.588-1.588Zm7.939,45.6H65.763a1.59,1.59,0,0,1-1.588-1.588V4.763a1.59,1.59,0,0,1,1.588-1.588H86.4v7.939a4.769,4.769,0,0,0,4.763,4.763h7.939V49.433A1.59,1.59,0,0,1,97.519,51.021Z" transform="translate(0 0)" fill="#da3d06"/>
    <path id="Caminho_2002" data-name="Caminho 2002" d="M171.641,212H152.588a1.588,1.588,0,1,0,0,3.176h19.053a1.588,1.588,0,1,0,0-3.176Z" transform="translate(-80.473 -189.559)" fill="#da3d06"/>
    <path id="Caminho_2003" data-name="Caminho 2003" d="M171.641,272H152.588a1.588,1.588,0,1,0,0,3.176h19.053a1.588,1.588,0,1,0,0-3.176Z" transform="translate(-80.473 -243.208)" fill="#da3d06"/>
    <path id="Caminho_2004" data-name="Caminho 2004" d="M171.641,332H152.588a1.588,1.588,0,1,0,0,3.176h19.053a1.588,1.588,0,1,0,0-3.176Z" transform="translate(-80.473 -296.857)" fill="#da3d06"/>
    <path id="Caminho_2005" data-name="Caminho 2005" d="M165.29,392h-12.7a1.588,1.588,0,0,0,0,3.176h12.7a1.588,1.588,0,0,0,0-3.176Z" transform="translate(-80.473 -350.506)" fill="#da3d06"/>
  </g>
</svg>
