<svg xmlns="http://www.w3.org/2000/svg" width="63" height="62.983" viewBox="0 0 63 62.983">
  <g id="home-run" transform="translate(-0.001 -0.068)">
    <g id="Grupo_3122" data-name="Grupo 3122" transform="translate(0.001 0.068)">
      <g id="Grupo_3121" data-name="Grupo 3121" transform="translate(0)">
        <path id="Caminho_2125" data-name="Caminho 2125" d="M62.984,27.313a5.5,5.5,0,0,0-1.917-3.78l-5.449-4.671V5.59a1.846,1.846,0,0,0-1.846-1.846H46.389A1.825,1.825,0,0,0,44.568,5.59V9.371L35.228,1.41a5.508,5.508,0,0,0-7.2-.005L1.936,23.533a5.534,5.534,0,0,0-.6,7.81,5.594,5.594,0,0,0,6.072,1.613v28.25A1.825,1.825,0,0,0,9.23,63.051H53.772a1.846,1.846,0,0,0,1.846-1.846V32.957a5.536,5.536,0,0,0,7.367-5.644ZM48.235,7.436h3.716V15.7l-3.716-3.164Zm-9.2,51.925H24V44.571H39.031Zm12.919,0H42.7V42.75A1.846,1.846,0,0,0,40.852,40.9H22.15a1.825,1.825,0,0,0-1.821,1.846V59.36H11.076V30.3L31.618,12.877,51.951,30.284V59.36Zm6.914-30.422a1.846,1.846,0,0,1-2.6.2L32.825,9.05a1.845,1.845,0,0,0-2.395-.006L6.742,29.138a1.846,1.846,0,0,1-2.411-2.8L30.422,4.213a1.837,1.837,0,0,1,2.4,0L58.665,26.336A1.848,1.848,0,0,1,58.865,28.938Z" transform="translate(-0.001 -0.068)" fill="#da3d06"/>
      </g>
    </g>
    <g id="Grupo_3124" data-name="Grupo 3124" transform="translate(24.02 22.201)">
      <g id="Grupo_3123" data-name="Grupo 3123">
        <path id="Caminho_2126" data-name="Caminho 2126" d="M208.348,179.938h-11.32a1.825,1.825,0,0,0-1.821,1.846v11.074a1.825,1.825,0,0,0,1.821,1.846h11.32a1.846,1.846,0,0,0,1.846-1.846V181.784A1.845,1.845,0,0,0,208.348,179.938Zm-1.821,11.074h-7.653v-7.383h7.653Z" transform="translate(-195.207 -179.938)" fill="#da3d06"/>
      </g>
    </g>
    <g id="Grupo_3126" data-name="Grupo 3126" transform="translate(31.624 48.286)">
      <g id="Grupo_3125" data-name="Grupo 3125">
        <circle id="Elipse_7" data-name="Elipse 7" cx="1.846" cy="1.846" r="1.846" fill="#da3d06"/>
      </g>
    </g>
  </g>
</svg>
