<svg id="info" xmlns="http://www.w3.org/2000/svg" width="70.5" height="70.5" viewBox="0 0 70.5 70.5">
  <path id="Caminho_2104" data-name="Caminho 2104" d="M30.094,49.187A19.094,19.094,0,1,1,49.187,30.094,19.116,19.116,0,0,1,30.094,49.187Zm0-35.25A16.156,16.156,0,1,0,46.25,30.094,16.175,16.175,0,0,0,30.094,13.938Z" transform="translate(21.312 21.312)" fill="#da3d06"/>
  <path id="Caminho_2105" data-name="Caminho 2105" d="M18.469,30.687A1.469,1.469,0,0,1,17,29.219V17.469a1.469,1.469,0,1,1,2.937,0v11.75A1.469,1.469,0,0,1,18.469,30.687Z" transform="translate(32.937 31)" fill="#da3d06"/>
  <circle id="Elipse_6" data-name="Elipse 6" cx="1.5" cy="1.5" r="1.5" transform="translate(50 41.5)" fill="#da3d06"/>
  <path id="Caminho_2106" data-name="Caminho 2106" d="M27.906,55.875H7.344A7.352,7.352,0,0,1,0,48.531V10.344A7.352,7.352,0,0,1,7.344,3h5.875a1.469,1.469,0,0,1,0,2.938H7.344a4.412,4.412,0,0,0-4.406,4.406V48.531a4.412,4.412,0,0,0,4.406,4.406H27.906a1.469,1.469,0,1,1,0,2.937Z" transform="translate(0 5.813)" fill="#da3d06"/>
  <path id="Caminho_2107" data-name="Caminho 2107" d="M26.031,17.625H8.406A4.412,4.412,0,0,1,4,13.219V7.344A1.469,1.469,0,0,1,5.469,5.875h4.553a7.346,7.346,0,0,1,14.394,0h4.553a1.469,1.469,0,0,1,1.469,1.469v5.875A4.412,4.412,0,0,1,26.031,17.625ZM6.938,8.813v4.406a1.471,1.471,0,0,0,1.469,1.469H26.031A1.471,1.471,0,0,0,27.5,13.219V8.813H23.094a1.469,1.469,0,0,1-1.469-1.469,4.406,4.406,0,1,0-8.812,0,1.469,1.469,0,0,1-1.469,1.469Z" transform="translate(7.75)" fill="#da3d06"/>
  <path id="Caminho_2108" data-name="Caminho 2108" d="M33.844,10.937H4.469A1.469,1.469,0,1,1,4.469,8H33.844a1.469,1.469,0,1,1,0,2.937Z" transform="translate(5.813 15.5)" fill="#da3d06"/>
  <path id="Caminho_2109" data-name="Caminho 2109" d="M25.031,13.938H4.469a1.469,1.469,0,1,1,0-2.937H25.031a1.469,1.469,0,1,1,0,2.937Z" transform="translate(5.813 21.312)" fill="#da3d06"/>
  <path id="Caminho_2110" data-name="Caminho 2110" d="M19.156,16.938H4.469a1.469,1.469,0,1,1,0-2.937H19.156a1.469,1.469,0,1,1,0,2.937Z" transform="translate(5.813 27.125)" fill="#da3d06"/>
  <path id="Caminho_2111" data-name="Caminho 2111" d="M25.219,20.625a1.469,1.469,0,0,1-1.469-1.469V10.344a4.412,4.412,0,0,0-4.406-4.406H13.469a1.469,1.469,0,1,1,0-2.937h5.875a7.352,7.352,0,0,1,7.344,7.344v8.812A1.469,1.469,0,0,1,25.219,20.625Z" transform="translate(23.25 5.813)" fill="#da3d06"/>
</svg>
