<svg id="instagram" xmlns="http://www.w3.org/2000/svg" width="15.429" height="15.432" viewBox="0 0 15.429 15.432">
  <path id="Caminho_1959" data-name="Caminho 1959" d="M15.838,4.537a5.639,5.639,0,0,0-.359-1.872A3.953,3.953,0,0,0,13.221.407,5.653,5.653,0,0,0,11.349.048C10.523.009,10.261,0,8.166,0S5.809.009,4.986.045A5.64,5.64,0,0,0,3.114.4,3.765,3.765,0,0,0,1.745,1.3,3.8,3.8,0,0,0,.856,2.662,5.654,5.654,0,0,0,.5,4.534C.458,5.36.449,5.622.449,7.717s.009,2.357.045,3.18A5.638,5.638,0,0,0,.853,12.77,3.952,3.952,0,0,0,3.11,15.028a5.654,5.654,0,0,0,1.872.359c.823.036,1.085.045,3.18.045s2.357-.009,3.18-.045a5.637,5.637,0,0,0,1.872-.359,3.947,3.947,0,0,0,2.258-2.258,5.658,5.658,0,0,0,.359-1.872c.036-.823.045-1.085.045-3.18s0-2.357-.039-3.18Zm-1.39,6.3a4.23,4.23,0,0,1-.265,1.432,2.56,2.56,0,0,1-1.465,1.465A4.245,4.245,0,0,1,11.286,14c-.814.036-1.058.045-3.117.045S5.863,14.036,5.052,14a4.228,4.228,0,0,1-1.432-.265,2.375,2.375,0,0,1-.886-.576,2.4,2.4,0,0,1-.576-.886,4.245,4.245,0,0,1-.265-1.432c-.036-.814-.045-1.058-.045-3.117s.009-2.306.045-3.117a4.228,4.228,0,0,1,.265-1.432,2.346,2.346,0,0,1,.579-.886,2.4,2.4,0,0,1,.886-.576,4.248,4.248,0,0,1,1.432-.265C5.869,1.411,6.113,1.4,8.172,1.4s2.306.009,3.117.045a4.23,4.23,0,0,1,1.432.265,2.373,2.373,0,0,1,.886.576,2.4,2.4,0,0,1,.576.886,4.247,4.247,0,0,1,.265,1.432c.036.814.045,1.058.045,3.117s-.009,2.3-.045,3.114Zm0,0" transform="translate(-0.449 0)" fill="#202a5c"/>
  <path id="Caminho_1960" data-name="Caminho 1960" d="M128.913,124.5a3.964,3.964,0,1,0,3.964,3.964A3.965,3.965,0,0,0,128.913,124.5Zm0,6.536a2.571,2.571,0,1,1,2.571-2.571A2.572,2.572,0,0,1,128.913,131.036Zm0,0" transform="translate(-121.196 -120.747)" fill="#202a5c"/>
  <path id="Caminho_1961" data-name="Caminho 1961" d="M364.3,89.527a.926.926,0,1,1-.926-.925A.926.926,0,0,1,364.3,89.527Zm0,0" transform="translate(-351.537 -85.931)" fill="#202a5c"/>
</svg>
