<svg xmlns="http://www.w3.org/2000/svg" width="68.5" height="68.5" viewBox="0 0 68.5 68.5">
  <g id="intranet" transform="translate(0 0)">
    <path id="Caminho_2081" data-name="Caminho 2081" d="M65.186,41.984H54.137V35.032A17.672,17.672,0,0,0,50.823,0H14.363V6.629H3.315A3.319,3.319,0,0,0,0,9.944V25.411a3.319,3.319,0,0,0,3.315,3.315H9.944v2.21H7.734v2.21H23.2v-2.21h-2.21v-2.21h6.629a3.319,3.319,0,0,0,3.315-3.315V9.944a3.319,3.319,0,0,0-3.315-3.315H16.573V2.21H42.283a17.671,17.671,0,0,0,8.539,33.145c.373,0,.738-.033,1.1-.056v6.685H40.879A3.319,3.319,0,0,0,37.565,45.3V60.766a3.319,3.319,0,0,0,3.315,3.315h6.629v2.21H45.3V68.5H60.766V66.29h-2.21v-2.21h6.629A3.319,3.319,0,0,0,68.5,60.766V45.3a3.319,3.319,0,0,0-3.315-3.315Zm-46.4-11.048H12.153v-2.21h6.629Zm8.839-4.419H3.315a1.106,1.106,0,0,1-1.1-1.1v-1.1H28.726v1.1A1.106,1.106,0,0,1,27.621,26.516Zm1.1-16.573V22.1H2.21V9.944a1.106,1.106,0,0,1,1.1-1.1H27.621A1.106,1.106,0,0,1,28.726,9.944ZM45.294,22.352,44.037,21.6a4.227,4.227,0,0,1,.6-7.549,4.539,4.539,0,0,0,2.867-4.235,13,13,0,0,0-1.884-6.685,15.358,15.358,0,0,1,4.094-.862V3.677a6.607,6.607,0,0,0,2.948,5.509l1.717,1.144A4.4,4.4,0,0,1,56.347,14a6.6,6.6,0,0,0,4.075,6.111L65.6,22.267A15.425,15.425,0,0,1,63.587,26.4a8.7,8.7,0,0,0-3.012-4.169,6.184,6.184,0,0,0-9.658,3.248,31.137,31.137,0,0,0-1.167,7.614,15.311,15.311,0,0,1-2.994-.506,5.461,5.461,0,0,0,.751-2.755V26.263a4.588,4.588,0,0,0-2.214-3.911ZM51.96,33.088a29,29,0,0,1,1.082-7A3.973,3.973,0,0,1,59.248,24a6.5,6.5,0,0,1,2.564,4.548,15.418,15.418,0,0,1-9.852,4.542ZM66.29,17.678a15.483,15.483,0,0,1-.206,2.4l-4.814-2.005A4.4,4.4,0,0,1,58.557,14a6.607,6.607,0,0,0-2.948-5.509L53.892,7.347a4.4,4.4,0,0,1-1.964-3.67V2.266A15.476,15.476,0,0,1,66.29,17.678Zm-30.935,0A15.479,15.479,0,0,1,43.586,4.016a10.792,10.792,0,0,1,1.712,5.8A2.338,2.338,0,0,1,43.82,12a6.409,6.409,0,0,0-4.046,5.977,6.473,6.473,0,0,0,3.126,5.52l1.257.754A2.362,2.362,0,0,1,45.3,26.263v3.568a3.225,3.225,0,0,1-.695,2,15.483,15.483,0,0,1-9.249-14.152Zm5.524,26.516H65.186a1.106,1.106,0,0,1,1.1,1.1V57.452H39.774V45.3A1.106,1.106,0,0,1,40.879,44.194Zm15.468,22.1H49.718v-2.21h6.629Zm8.839-4.419H40.879a1.106,1.106,0,0,1-1.1-1.1v-1.1H66.29v1.1A1.106,1.106,0,0,1,65.186,61.871Zm0,0" transform="translate(0)"/>
    <path id="Caminho_2082" data-name="Caminho 2082" d="M150.629,307.315a3.315,3.315,0,1,0-3.315,3.315A3.319,3.319,0,0,0,150.629,307.315Zm-4.419,0a1.1,1.1,0,1,1,1.1,1.1A1.106,1.106,0,0,1,146.21,307.315Zm0,0" transform="translate(-124.113 -262.016)"/>
    <path id="Caminho_2083" data-name="Caminho 2083" d="M114.264,288.406A7.734,7.734,0,1,0,125.2,299.342l-1.562-1.562a5.524,5.524,0,0,1-7.814-7.812Zm0,0" transform="translate(-96.532 -248.576)"/>
    <path id="Caminho_2084" data-name="Caminho 2084" d="M85.159,281.395a9.956,9.956,0,0,1,0-14.064L83.6,265.769a12.153,12.153,0,0,0,17.187,17.188l-1.562-1.562a9.954,9.954,0,0,1-14.062,0Zm0,0" transform="translate(-68.989 -229.065)"/>
  </g>
</svg>
