<svg xmlns="http://www.w3.org/2000/svg" width="65.33" height="65.333" viewBox="0 0 65.33 65.333">
  <g id="invoice" transform="translate(-0.008 0.001)">
    <g id="Grupo_3104" data-name="Grupo 3104" transform="translate(27.978 59.207)">
      <g id="Grupo_3103" data-name="Grupo 3103">
        <path id="Caminho_2116" data-name="Caminho 2116" d="M227.286,464H220.48a1.276,1.276,0,1,0,0,2.552h6.806a1.276,1.276,0,0,0,0-2.552Z" transform="translate(-219.204 -464.002)" fill="#da3d06"/>
      </g>
    </g>
    <g id="Grupo_3106" data-name="Grupo 3106" transform="translate(0.008 -0.001)">
      <g id="Grupo_3105" data-name="Grupo 3105" transform="translate(0 0)">
        <path id="Caminho_2117" data-name="Caminho 2117" d="M64.062,55.634H62.531V23.173a4.473,4.473,0,0,0-4.392-4.54H53.328V1.276a1.276,1.276,0,0,0-2.178-.9L48.173,3.35,45.2.373a1.276,1.276,0,0,0-1.8,0L40.415,3.35,37.438.373a1.276,1.276,0,0,0-1.8,0L32.657,3.35,29.68.373a1.276,1.276,0,0,0-1.8,0L24.9,3.35,21.922.373a1.276,1.276,0,0,0-1.8,0L17.141,3.35,14.164.373a1.276,1.276,0,0,0-2.177.934V18.633H7.207a4.473,4.473,0,0,0-4.392,4.54V55.634H1.284A1.276,1.276,0,0,0,.008,56.91V59.08A6.259,6.259,0,0,0,6.26,65.332H59.086a6.259,6.259,0,0,0,6.252-6.252V56.91A1.276,1.276,0,0,0,64.062,55.634ZM14.539,4.358l1.7,1.7a1.276,1.276,0,0,0,1.8,0L21.02,3.08,24,6.057a1.276,1.276,0,0,0,1.8,0L28.778,3.08l2.977,2.977a1.276,1.276,0,0,0,1.8,0L36.536,3.08l2.977,2.977a1.276,1.276,0,0,0,1.8,0L44.294,3.08,47.27,6.057a1.276,1.276,0,0,0,1.8,0l1.7-1.7V45.337H14.539ZM13.264,47.889H52.052a1.276,1.276,0,0,0,1.276-1.276V43.321h1.588a1,1,0,0,1,1,1v4.592a1,1,0,0,1-1,1H10.43a1,1,0,0,1-1-1V44.317a1,1,0,0,1,1-1h1.557v3.292A1.276,1.276,0,0,0,13.264,47.889Zm-6.057-26.7h4.781V40.769H10.43a3.552,3.552,0,0,0-3.548,3.548v4.592a3.552,3.552,0,0,0,3.548,3.548H54.916a3.552,3.552,0,0,0,3.548-3.548V44.317a3.552,3.552,0,0,0-3.548-3.548H53.328V21.185h4.811a1.921,1.921,0,0,1,1.84,1.988V55.635H5.367V23.173h0A1.921,1.921,0,0,1,7.207,21.185ZM62.786,59.08a3.7,3.7,0,0,1-3.7,3.7H6.26a3.7,3.7,0,0,1-3.7-3.7v-.893H62.786v.893Z" transform="translate(-0.008 0.001)" fill="#da3d06"/>
      </g>
    </g>
    <g id="Grupo_3108" data-name="Grupo 3108" transform="translate(28.314 10.137)">
      <g id="Grupo_3107" data-name="Grupo 3107">
        <path id="Caminho_2118" data-name="Caminho 2118" d="M226.179,86.718a1.531,1.531,0,1,1,1.792-1.509,1.276,1.276,0,0,0,2.552,0,4.111,4.111,0,0,0-3.068-3.881v-.6a1.276,1.276,0,1,0-2.552,0v.6a4.111,4.111,0,0,0-3.068,3.881,4.214,4.214,0,0,0,4.344,4.06,1.531,1.531,0,1,1-1.792,1.509,1.276,1.276,0,1,0-2.552,0A4.111,4.111,0,0,0,224.9,94.66v.756a1.276,1.276,0,1,0,2.552,0V94.66a4.111,4.111,0,0,0,3.068-3.881A4.214,4.214,0,0,0,226.179,86.718Z" transform="translate(-221.835 -79.448)" fill="#da3d06"/>
      </g>
    </g>
    <g id="Grupo_3110" data-name="Grupo 3110" transform="translate(40.255 17.407)">
      <g id="Grupo_3109" data-name="Grupo 3109">
        <path id="Caminho_2119" data-name="Caminho 2119" d="M318.829,136.42h-2.136a1.276,1.276,0,1,0,0,2.552h2.136a1.276,1.276,0,0,0,0-2.552Z" transform="translate(-315.417 -136.42)" fill="#da3d06"/>
      </g>
    </g>
    <g id="Grupo_3112" data-name="Grupo 3112" transform="translate(20.373 17.407)">
      <g id="Grupo_3111" data-name="Grupo 3111">
        <path id="Caminho_2120" data-name="Caminho 2120" d="M163.016,136.42H160.88a1.276,1.276,0,1,0,0,2.552h2.136a1.276,1.276,0,1,0,0-2.552Z" transform="translate(-159.604 -136.42)" fill="#da3d06"/>
      </g>
    </g>
    <g id="Grupo_3114" data-name="Grupo 3114" transform="translate(25.655 29.604)">
      <g id="Grupo_3113" data-name="Grupo 3113">
        <path id="Caminho_2121" data-name="Caminho 2121" d="M219.425,232.009H202.273a1.276,1.276,0,1,0,0,2.552h17.152a1.276,1.276,0,1,0,0-2.552Z" transform="translate(-200.997 -232.009)" fill="#da3d06"/>
      </g>
    </g>
    <g id="Grupo_3116" data-name="Grupo 3116" transform="translate(19.957 29.604)">
      <g id="Grupo_3115" data-name="Grupo 3115">
        <path id="Caminho_2122" data-name="Caminho 2122" d="M158.524,232.383a1.275,1.275,0,1,0,.374.9A1.285,1.285,0,0,0,158.524,232.383Z" transform="translate(-156.346 -232.009)" fill="#da3d06"/>
      </g>
    </g>
    <g id="Grupo_3118" data-name="Grupo 3118" transform="translate(25.655 36.75)">
      <g id="Grupo_3117" data-name="Grupo 3117">
        <path id="Caminho_2123" data-name="Caminho 2123" d="M219.425,288.007H202.273a1.276,1.276,0,1,0,0,2.552h17.152a1.276,1.276,0,1,0,0-2.552Z" transform="translate(-200.997 -288.007)" fill="#da3d06"/>
      </g>
    </g>
    <g id="Grupo_3120" data-name="Grupo 3120" transform="translate(19.957 36.75)">
      <g id="Grupo_3119" data-name="Grupo 3119">
        <path id="Caminho_2124" data-name="Caminho 2124" d="M158.524,288.381a1.275,1.275,0,1,0,.374.9A1.285,1.285,0,0,0,158.524,288.381Z" transform="translate(-156.346 -288.007)" fill="#da3d06"/>
      </g>
    </g>
  </g>
</svg>
