<svg id="list" xmlns="http://www.w3.org/2000/svg" width="56.6" height="56.6" viewBox="0 0 56.6 56.6">
  <g id="Grupo_3129" data-name="Grupo 3129">
    <g id="Grupo_3128" data-name="Grupo 3128">
      <path id="Caminho_2138" data-name="Caminho 2138" d="M50.536,0H6.064A6.064,6.064,0,0,0,0,6.064V50.536A6.064,6.064,0,0,0,6.064,56.6H50.536A6.064,6.064,0,0,0,56.6,50.536V6.064A6.064,6.064,0,0,0,50.536,0Zm2.021,50.536a2.021,2.021,0,0,1-2.021,2.021H6.064a2.021,2.021,0,0,1-2.021-2.021V6.064A2.021,2.021,0,0,1,6.064,4.043H50.536a2.021,2.021,0,0,1,2.021,2.021V50.536Z" fill="#da3d06"/>
    </g>
  </g>
  <g id="Grupo_3131" data-name="Grupo 3131" transform="translate(10.107 12.129)">
    <g id="Grupo_3130" data-name="Grupo 3130">
      <path id="Caminho_2139" data-name="Caminho 2139" d="M93.419,102.4H87.354a2.021,2.021,0,1,0,0,4.043h6.064a2.021,2.021,0,1,0,0-4.043Z" transform="translate(-85.333 -102.4)" fill="#da3d06"/>
    </g>
  </g>
  <g id="Grupo_3133" data-name="Grupo 3133" transform="translate(24.257 12.129)">
    <g id="Grupo_3132" data-name="Grupo 3132">
      <path id="Caminho_2140" data-name="Caminho 2140" d="M225.014,102.4H206.821a2.021,2.021,0,0,0,0,4.043h18.193a2.021,2.021,0,0,0,0-4.043Z" transform="translate(-204.8 -102.4)" fill="#da3d06"/>
    </g>
  </g>
  <g id="Grupo_3135" data-name="Grupo 3135" transform="translate(10.107 26.279)">
    <g id="Grupo_3134" data-name="Grupo 3134">
      <path id="Caminho_2141" data-name="Caminho 2141" d="M93.419,221.867H87.354a2.021,2.021,0,1,0,0,4.043h6.064a2.021,2.021,0,1,0,0-4.043Z" transform="translate(-85.333 -221.867)" fill="#da3d06"/>
    </g>
  </g>
  <g id="Grupo_3137" data-name="Grupo 3137" transform="translate(24.257 26.279)">
    <g id="Grupo_3136" data-name="Grupo 3136">
      <path id="Caminho_2142" data-name="Caminho 2142" d="M225.014,221.867H206.821a2.021,2.021,0,1,0,0,4.043h18.193a2.021,2.021,0,1,0,0-4.043Z" transform="translate(-204.8 -221.867)" fill="#da3d06"/>
    </g>
  </g>
  <g id="Grupo_3139" data-name="Grupo 3139" transform="translate(10.107 40.429)">
    <g id="Grupo_3138" data-name="Grupo 3138">
      <path id="Caminho_2143" data-name="Caminho 2143" d="M93.419,341.333H87.354a2.021,2.021,0,1,0,0,4.043h6.064a2.021,2.021,0,1,0,0-4.043Z" transform="translate(-85.333 -341.333)" fill="#da3d06"/>
    </g>
  </g>
  <g id="Grupo_3141" data-name="Grupo 3141" transform="translate(24.257 40.429)">
    <g id="Grupo_3140" data-name="Grupo 3140">
      <path id="Caminho_2144" data-name="Caminho 2144" d="M225.014,341.333H206.821a2.021,2.021,0,1,0,0,4.043h18.193a2.021,2.021,0,1,0,0-4.043Z" transform="translate(-204.8 -341.333)" fill="#da3d06"/>
    </g>
  </g>
</svg>
