<svg xmlns="http://www.w3.org/2000/svg" width="65.719" height="59.4" viewBox="0 0 65.719 59.4">
  <g id="open" transform="translate(0 -24.615)">
    <g id="Grupo_3144" data-name="Grupo 3144" transform="translate(0 24.615)">
      <g id="Grupo_3143" data-name="Grupo 3143" transform="translate(0 0)">
        <g id="Grupo_3142" data-name="Grupo 3142">
          <path id="Caminho_2145" data-name="Caminho 2145" d="M428.475,231.385h0Z" transform="translate(-373.347 -204.844)" fill="#da3d06"/>
          <path id="Caminho_2146" data-name="Caminho 2146" d="M432.02,231.385h0Z" transform="translate(-376.431 -204.844)" fill="#da3d06"/>
          <path id="Caminho_2147" data-name="Caminho 2147" d="M425.15,231.385h0Z" transform="translate(-370.458 -204.844)" fill="#da3d06"/>
          <path id="Caminho_2148" data-name="Caminho 2148" d="M421.176,231.385h0Z" transform="translate(-367.01 -204.844)" fill="#da3d06"/>
          <path id="Caminho_2149" data-name="Caminho 2149" d="M414.924,231.386h0Z" transform="translate(-361.613 -204.845)" fill="#da3d06"/>
          <path id="Caminho_2150" data-name="Caminho 2150" d="M418.626,231.385h0Z" transform="translate(-364.802 -204.844)" fill="#da3d06"/>
          <path id="Caminho_2151" data-name="Caminho 2151" d="M434.472,231.385h0Z" transform="translate(-378.565 -204.844)" fill="#da3d06"/>
          <path id="Caminho_2152" data-name="Caminho 2152" d="M438.237,231.385h0Z" transform="translate(-381.844 -204.844)" fill="#da3d06"/>
          <path id="Caminho_2153" data-name="Caminho 2153" d="M458.381,231.385h0Z" transform="translate(-399.435 -204.844)" fill="#da3d06"/>
          <path id="Caminho_2154" data-name="Caminho 2154" d="M462,231.385h0Z" transform="translate(-402.606 -204.844)" fill="#da3d06"/>
          <path id="Caminho_2155" data-name="Caminho 2155" d="M442.042,231.385h0Z" transform="translate(-385.16 -204.844)" fill="#da3d06"/>
          <path id="Caminho_2156" data-name="Caminho 2156" d="M60.032,47.364H53.714L38.36,35.808a6.951,6.951,0,1,0-11,0L12,47.364H5.687A5.694,5.694,0,0,0,0,53.051V78.328a5.694,5.694,0,0,0,5.687,5.687H60.032a5.694,5.694,0,0,0,5.687-5.687V53.051A5.694,5.694,0,0,0,60.032,47.364ZM32.86,28.407a3.16,3.16,0,1,1-3.16,3.16A3.163,3.163,0,0,1,32.86,28.407Zm-2.281,9.724a6.927,6.927,0,0,0,4.563,0l12.268,9.233H18.31Zm31.349,40.2a1.9,1.9,0,0,1-1.9,1.9H5.687a1.9,1.9,0,0,1-1.9-1.9V53.051a1.9,1.9,0,0,1,1.9-1.9H60.032a1.9,1.9,0,0,1,1.9,1.9V78.328Z" transform="translate(0 -24.615)" fill="#da3d06"/>
          <path id="Caminho_2157" data-name="Caminho 2157" d="M455.266,231.385h0Z" transform="translate(-396.709 -204.844)" fill="#da3d06"/>
          <path id="Caminho_2158" data-name="Caminho 2158" d="M445.82,231.385h0Z" transform="translate(-388.456 -204.844)" fill="#da3d06"/>
          <path id="Caminho_2159" data-name="Caminho 2159" d="M448.293,231.385h0Z" transform="translate(-390.615 -204.844)" fill="#da3d06"/>
          <path id="Caminho_2160" data-name="Caminho 2160" d="M451.882,231.385h0Z" transform="translate(-393.75 -204.844)" fill="#da3d06"/>
        </g>
      </g>
    </g>
  </g>
</svg>
