<svg xmlns="http://www.w3.org/2000/svg" width="23" height="23" viewBox="0 0 23 23">
  <g id="Page-1" transform="translate(11.502 -0.002) rotate(45)">
    <g id="Dribbble-Light-Preview" transform="translate(0 0.003)">
      <g id="icons" transform="translate(0 0)">
        <path id="contrast-_908_" data-name="contrast-[#908]" d="M96.732,4051.735a6.505,6.505,0,0,1-9.2-9.2l.037-.035,9.2,9.2-.036.037m1.543.728a8.137,8.137,0,0,0,1.277-8.657,7.5,7.5,0,0,0-4.092-4.092,8.138,8.138,0,0,0-9.042,1.635l-.036.036a8.132,8.132,0,0,0,11.5,11.5l.036-.037h0c.124-.125.243-.252.358-.386" transform="translate(-84 -4039.003)" fill="#202a5c" fill-rule="evenodd"/>
      </g>
    </g>
  </g>
</svg>
