<svg xmlns="http://www.w3.org/2000/svg" width="78.88" height="63.305" viewBox="0 0 78.88 63.305">
  <g id="partner" transform="translate(0.001 0.001)">
    <path id="Caminho_2133" data-name="Caminho 2133" d="M393.936,63.479a1.54,1.54,0,1,0-2.179,0A1.541,1.541,0,0,0,393.936,63.479Zm0,0" transform="translate(-331.021 -51.475)" fill="#da3d06"/>
    <path id="Caminho_2134" data-name="Caminho 2134" d="M116.045,84.193a1.54,1.54,0,1,0-2.179,0A1.541,1.541,0,0,0,116.045,84.193Zm0,0" transform="translate(-95.942 -69)" fill="#da3d06"/>
    <path id="Caminho_2135" data-name="Caminho 2135" d="M57.2,116.443l4.611-4.613a1.541,1.541,0,0,0-2.179-2.179l-4.611,4.613a1.541,1.541,0,0,0,2.179,2.179Zm0,0" transform="translate(-46.163 -92.378)" fill="#da3d06"/>
    <path id="Caminho_2136" data-name="Caminho 2136" d="M422.015,95.895a1.541,1.541,0,1,0,2.179-2.179l-3.073-3.073a1.541,1.541,0,1,0-2.179,2.179Zm0,0" transform="translate(-354.018 -76.298)" fill="#da3d06"/>
    <path id="Caminho_2137" data-name="Caminho 2137" d="M78.428,17.881,61,.45A1.54,1.54,0,0,0,58.855.418C57.5,1.693,51.14,7.684,51.048,7.774l-.017.016a6.458,6.458,0,0,1-4.81,2.179,12.226,12.226,0,0,0-8.937,3.292,11.472,11.472,0,0,0-7.21-3.105l-7.7-7.7a1.541,1.541,0,0,0-2.179,0L.451,22.195a1.538,1.538,0,0,0-.034,2.141c.012.013.022.025.034.037L13.315,37.217l-.544.544a5.387,5.387,0,0,0,3.869,9.2,5.386,5.386,0,0,0,5.447,5.449,5.383,5.383,0,0,0,5.447,5.445,5.391,5.391,0,0,0,9.2,3.873l.545-.545.545.545a5.392,5.392,0,0,0,9.2-3.87,5.383,5.383,0,0,0,5.444-5.446,5.39,5.39,0,0,0,5.449-5.451,5.387,5.387,0,0,0,3.869-9.2l-.543-.543c10.742-10.73-2.847,2.869,17.177-17.158a1.54,1.54,0,0,0,0-2.179Zm-74.709,5.4L21.282,5.721,27.2,11.64,9.641,29.2Zm11.23,19.924a2.31,2.31,0,0,1,0-3.268L20.4,34.492a2.311,2.311,0,1,1,3.268,3.269l-5.446,5.446a2.317,2.317,0,0,1-3.27,0ZM20.4,48.655a2.309,2.309,0,0,1,0-3.269l5.446-5.446a2.311,2.311,0,1,1,3.269,3.267h0l-5.447,5.447a2.313,2.313,0,0,1-3.268,0ZM25.843,54.1a2.309,2.309,0,0,1,0-3.267l5.448-5.448a2.311,2.311,0,0,1,3.268,3.268h0L29.113,54.1a2.316,2.316,0,0,1-3.27,0Zm5.448,5.448a2.309,2.309,0,0,1,0-3.269l5.446-5.446A2.311,2.311,0,1,1,40.006,54.1l-5.447,5.448a2.314,2.314,0,0,1-3.268,0Zm11.983,0a2.313,2.313,0,0,1-3.267,0L39.461,59l2.724-2.724a5.568,5.568,0,0,0,.5-.585l.584.584h0a2.309,2.309,0,0,1,0,3.268ZM59.616,43.207a2.316,2.316,0,0,1-3.269,0l-7.081-7.08a1.541,1.541,0,1,0-2.179,2.179l7.081,7.081A2.311,2.311,0,0,1,50.9,48.655l-7.081-7.083a1.541,1.541,0,0,0-2.179,2.179l7.081,7.082a2.311,2.311,0,0,1-1.635,3.944c-1.464,0-1.936-1.153-3.324-2.367a5.389,5.389,0,0,0-5.446-5.335,5.386,5.386,0,0,0-5.448-5.444,5.386,5.386,0,0,0-5.446-5.449,5.392,5.392,0,0,0-9.2-3.869l-2.725,2.725-3.671-3.66L29.955,13.243A8.319,8.319,0,0,1,35.1,15.433l-4.353,4.352A6.163,6.163,0,1,0,39.461,28.5l4.358-4.358,15.8,15.8a2.312,2.312,0,0,1,0,3.267Zm-.544-8.168L46,21.964l1.089-1.089A1.541,1.541,0,1,0,44.908,18.7l-7.626,7.627a3.082,3.082,0,0,1-4.358-4.358L39.2,15.692a9.179,9.179,0,0,1,7.023-2.643,9.046,9.046,0,0,0,5.823-2.041L67.384,26.747l-8.313,8.291Zm10.492-10.47L54.317,8.926l5.562-5.24L75.16,18.97Zm0,0" transform="translate(0 0)" fill="#da3d06"/>
  </g>
</svg>
