<svg xmlns="http://www.w3.org/2000/svg" width="33" height="33" viewBox="0 0 33 33">
  <g id="Grupo_3056" data-name="Grupo 3056" transform="translate(-732 -556)">
    <g id="Layer_2" data-name="Layer 2" transform="translate(732 556)">
      <g id="phone">
        <rect id="Retângulo_927" data-name="Retângulo 927" width="33" height="33" fill="#18204a" opacity="0"/>
        <path id="Caminho_2000" data-name="Caminho 2000" d="M22.961,29.222A20.988,20.988,0,0,1,2,8.261,6.261,6.261,0,0,1,8.261,2a5.363,5.363,0,0,1,1.048.1,5.159,5.159,0,0,1,.98.245,1.361,1.361,0,0,1,.885,1.021l1.865,8.167a1.361,1.361,0,0,1-.354,1.252c-.177.191-.191.2-1.865,1.075a13.489,13.489,0,0,0,6.629,6.656c.885-1.688.9-1.7,1.089-1.878a1.361,1.361,0,0,1,1.252-.354l8.167,1.865a1.361,1.361,0,0,1,.98.885,5.907,5.907,0,0,1,.259.994,6.492,6.492,0,0,1,.082,1.034A6.261,6.261,0,0,1,22.961,29.222Z" transform="translate(0.722 0.722)" fill="#18204a"/>
      </g>
    </g>
  </g>
</svg>
