<svg xmlns="http://www.w3.org/2000/svg" width="61.5" height="61.102" viewBox="0 0 61.5 61.102">
  <g id="presentation_2_" data-name="presentation (2)" transform="translate(0 -1.5)">
    <g id="Grupo_2948" data-name="Grupo 2948" transform="translate(0 1.5)">
      <g id="Grupo_2947" data-name="Grupo 2947" transform="translate(0 0)">
        <path id="Caminho_2036" data-name="Caminho 2036" d="M58.319,1.5H3.181a3.181,3.181,0,0,0,0,6.362V51.336a1.06,1.06,0,0,0,1.06,1.06H16.88l-7.1,8.88L11.432,62.6,19.6,52.4H29.69v2.316a3.181,3.181,0,1,0,2.121,0V52.4H41.9L50.068,62.6l1.656-1.325-7.1-8.88H57.259a1.06,1.06,0,0,0,1.06-1.06V7.862a3.181,3.181,0,0,0,0-6.362ZM30.75,58.759a1.06,1.06,0,1,1,1.06-1.06A1.06,1.06,0,0,1,30.75,58.759ZM56.2,50.276H5.3V7.862H56.2ZM58.319,5.741H3.181a1.06,1.06,0,1,1,0-2.121H58.319a1.06,1.06,0,0,1,0,2.121Z" transform="translate(0 -1.5)"/>
      </g>
    </g>
    <g id="Grupo_2950" data-name="Grupo 2950" transform="translate(9.283 35.538)">
      <g id="Grupo_2949" data-name="Grupo 2949" transform="translate(0 0)">
        <rect id="Retângulo_959" data-name="Retângulo 959" width="17" height="2" transform="translate(-0.283 0.02)"/>
      </g>
    </g>
    <g id="Grupo_2952" data-name="Grupo 2952" transform="translate(9.283 39.406)">
      <g id="Grupo_2951" data-name="Grupo 2951" transform="translate(0 0)">
        <rect id="Retângulo_960" data-name="Retângulo 960" width="17" height="2" transform="translate(-0.283 0.153)"/>
      </g>
    </g>
    <g id="Grupo_2954" data-name="Grupo 2954" transform="translate(9.283 44.047)">
      <g id="Grupo_2953" data-name="Grupo 2953" transform="translate(0 0)">
        <rect id="Retângulo_961" data-name="Retângulo 961" width="13" height="3" transform="translate(-0.283 -0.489)"/>
      </g>
    </g>
    <g id="Grupo_2956" data-name="Grupo 2956" transform="translate(17.792 30.896)">
      <g id="Grupo_2955" data-name="Grupo 2955" transform="translate(0 0)">
        <rect id="Retângulo_962" data-name="Retângulo 962" width="8" height="3" transform="translate(0.208 -0.338)"/>
      </g>
    </g>
    <g id="Grupo_2958" data-name="Grupo 2958" transform="translate(34.811 16.198)">
      <g id="Grupo_2957" data-name="Grupo 2957" transform="translate(0 0)">
        <rect id="Retângulo_963" data-name="Retângulo 963" width="17" height="2" transform="translate(0.189 0.36)"/>
      </g>
    </g>
    <g id="Grupo_2960" data-name="Grupo 2960" transform="translate(34.811 20.84)">
      <g id="Grupo_2959" data-name="Grupo 2959" transform="translate(0 0)">
        <rect id="Retângulo_964" data-name="Retângulo 964" width="17" height="2" transform="translate(0.189 -0.282)"/>
      </g>
    </g>
    <g id="Grupo_2962" data-name="Grupo 2962" transform="translate(34.811 24.708)">
      <g id="Grupo_2961" data-name="Grupo 2961" transform="translate(0 0)">
        <rect id="Retângulo_965" data-name="Retângulo 965" width="13" height="2" transform="translate(0.189 -0.149)"/>
      </g>
    </g>
    <g id="Grupo_2964" data-name="Grupo 2964" transform="translate(43.321 12.33)">
      <g id="Grupo_2963" data-name="Grupo 2963" transform="translate(0 0)">
        <rect id="Retângulo_966" data-name="Retângulo 966" width="9" height="1" transform="translate(-0.321 0.228)"/>
      </g>
    </g>
    <g id="Grupo_2966" data-name="Grupo 2966" transform="translate(9.543 11.043)">
      <g id="Grupo_2965" data-name="Grupo 2965">
        <path id="Caminho_2037" data-name="Caminho 2037" d="M80.483,73.5a8.483,8.483,0,1,0,8.483,8.483A8.483,8.483,0,0,0,80.483,73.5Zm1.092,2.222a6.355,6.355,0,0,1,4.036,2.511l-4.067,2.032Zm-4.759,1.072a6.345,6.345,0,0,1,2.644-1.078l-.038,5.843-4.135,4.079A6.346,6.346,0,0,1,76.816,76.794Zm5.521,11.274a6.329,6.329,0,0,1-5.566-.928l4.356-4.294,5.439-2.72A6.362,6.362,0,0,1,82.338,88.068Z" transform="translate(-72 -73.5)"/>
      </g>
    </g>
    <g id="Grupo_2968" data-name="Grupo 2968" transform="translate(32.491 40.953)">
      <g id="Grupo_2967" data-name="Grupo 2967" transform="translate(0 0)">
        <rect id="Retângulo_967" data-name="Retângulo 967" width="3" height="6" transform="translate(-0.491 -0.395)"/>
      </g>
    </g>
    <g id="Grupo_2970" data-name="Grupo 2970" transform="translate(49.509 38.632)">
      <g id="Grupo_2969" data-name="Grupo 2969" transform="translate(0 0)">
        <rect id="Retângulo_968" data-name="Retângulo 968" width="2" height="8" transform="translate(0.491 -0.074)"/>
      </g>
    </g>
    <g id="Grupo_2972" data-name="Grupo 2972" transform="translate(37.132 37.858)">
      <g id="Grupo_2971" data-name="Grupo 2971" transform="translate(0 0)">
        <rect id="Retângulo_969" data-name="Retângulo 969" width="2" height="9" transform="translate(-0.132 -0.3)"/>
      </g>
    </g>
    <g id="Grupo_2974" data-name="Grupo 2974" transform="translate(41 33.217)">
      <g id="Grupo_2973" data-name="Grupo 2973" transform="translate(0 0)">
        <rect id="Retângulo_970" data-name="Retângulo 970" width="2" height="13" transform="translate(0 0.341)"/>
      </g>
    </g>
    <g id="Grupo_2976" data-name="Grupo 2976" transform="translate(45.642 36.311)">
      <g id="Grupo_2975" data-name="Grupo 2975" transform="translate(0 0)">
        <rect id="Retângulo_971" data-name="Retângulo 971" width="2" height="10" transform="translate(0.358 0.247)"/>
      </g>
    </g>
    <g id="Grupo_2978" data-name="Grupo 2978" transform="translate(13.925 30.896)">
      <g id="Grupo_2977" data-name="Grupo 2977" transform="translate(0 0)">
        <rect id="Retângulo_972" data-name="Retângulo 972" width="2" height="3" transform="translate(0.075 -0.338)"/>
      </g>
    </g>
    <g id="Grupo_2980" data-name="Grupo 2980" transform="translate(39.453 12.33)">
      <g id="Grupo_2979" data-name="Grupo 2979" transform="translate(0 0)">
        <rect id="Retângulo_973" data-name="Retângulo 973" width="2" height="1" transform="translate(-0.453 0.228)"/>
      </g>
    </g>
  </g>
</svg>
