<svg xmlns="http://www.w3.org/2000/svg" width="50.847" height="68.549" viewBox="0 0 50.847 68.549">
  <g id="privacy" transform="translate(-66.118)">
    <path id="Caminho_2049" data-name="Caminho 2049" d="M111.61,8.032a5.319,5.319,0,0,0-2.712.74,5.35,5.35,0,0,0-8.032-4.016,5.354,5.354,0,0,0-10.641,0,5.351,5.351,0,0,0-8.067,4.615V43.329C79.366,40.049,75.951,36.3,75.59,35.9a5.354,5.354,0,0,0-8.257,6.817c2.724,3.321,5.116,6.582,7.226,9.459,5.416,7.385,9.695,13.219,15.913,15.447a1.339,1.339,0,1,0,.9-2.52c-5.447-1.952-9.511-7.494-14.657-14.51-2.13-2.9-4.545-6.2-7.315-9.574A2.643,2.643,0,0,1,68.8,39.33a2.677,2.677,0,0,1,4.748-1.7q.023.028.047.054c.061.067,5.876,6.44,8.624,9.912a1.339,1.339,0,0,0,1.283.959c.024,0,.048,0,.072,0s.042,0,.063,0l4.017-.048h.1a8.732,8.732,0,0,1,8.7,8.6,1.338,1.338,0,0,0,1.338,1.323h.016a1.339,1.339,0,0,0,1.323-1.355A11.379,11.379,0,0,0,87.753,45.83h-.137l-2.78.033V9.371a2.677,2.677,0,1,1,5.355,0V31.058a1.339,1.339,0,1,0,2.677,0V5.355a2.677,2.677,0,0,1,5.355,0v25.7a1.339,1.339,0,0,0,2.677,0V9.371a2.677,2.677,0,1,1,5.355,0V31.058a1.339,1.339,0,1,0,2.677,0V13.387a2.677,2.677,0,0,1,5.355,0V49.131a16.646,16.646,0,0,1-11.82,16,1.339,1.339,0,1,0,.785,2.56,19.57,19.57,0,0,0,9.833-6.916,19.247,19.247,0,0,0,3.879-11.645V13.387a5.361,5.361,0,0,0-5.355-5.355Z" fill="#da3d06"/>
    <circle id="Elipse_5" data-name="Elipse 5" cx="1.339" cy="1.339" r="1.339" transform="translate(95.549 65.871)" fill="#da3d06"/>
    <path id="Caminho_2050" data-name="Caminho 2050" d="M264.678,283.339A1.339,1.339,0,0,0,263.339,282H247.275a1.339,1.339,0,1,0,0,2.677h16.065A1.339,1.339,0,0,0,264.678,283.339Z" transform="translate(-155.746 -244.248)" fill="#da3d06"/>
  </g>
</svg>
