<svg xmlns="http://www.w3.org/2000/svg" width="38.6" height="51.467" viewBox="0 0 38.6 51.467">
  <g id="receipt" transform="translate(-64)">
    <path id="Caminho_2112" data-name="Caminho 2112" d="M97.976,51.467H97.7a3.5,3.5,0,0,1-3.258-2.208,1.609,1.609,0,0,0-2.986,0A3.5,3.5,0,0,1,88.2,51.467h-.147a3.5,3.5,0,0,1-3.258-2.208,1.609,1.609,0,0,0-2.986,0,3.5,3.5,0,0,1-3.258,2.207H78.4a3.5,3.5,0,0,1-3.258-2.208,1.609,1.609,0,0,0-2.986,0A3.5,3.5,0,0,1,68.9,51.467h-.274A4.629,4.629,0,0,1,64,46.843V4.624A4.629,4.629,0,0,1,68.624,0H68.9a3.5,3.5,0,0,1,3.258,2.208,1.609,1.609,0,0,0,2.986,0A3.5,3.5,0,0,1,78.4,0h.147a3.5,3.5,0,0,1,3.258,2.208,1.609,1.609,0,0,0,2.986,0A3.5,3.5,0,0,1,88.052,0H88.2a3.5,3.5,0,0,1,3.258,2.208,1.609,1.609,0,0,0,2.986,0A3.5,3.5,0,0,1,97.7,0h.274A4.629,4.629,0,0,1,102.6,4.624V46.843A4.629,4.629,0,0,1,97.976,51.467ZM92.95,45.033a4.8,4.8,0,0,1,4.478,3.026.3.3,0,0,0,.274.191h.274a1.409,1.409,0,0,0,1.407-1.407V4.624a1.409,1.409,0,0,0-1.407-1.407H97.7a.3.3,0,0,0-.274.191,4.826,4.826,0,0,1-8.955,0,.3.3,0,0,0-.274-.191h-.147a.3.3,0,0,0-.274.191,4.826,4.826,0,0,1-8.955,0,.3.3,0,0,0-.274-.191H78.4a.3.3,0,0,0-.274.191,4.826,4.826,0,0,1-8.955,0,.3.3,0,0,0-.274-.191h-.274a1.409,1.409,0,0,0-1.407,1.407V46.843a1.409,1.409,0,0,0,1.407,1.407H68.9a.3.3,0,0,0,.274-.191,4.826,4.826,0,0,1,8.955,0,.3.3,0,0,0,.274.191h.147a.3.3,0,0,0,.274-.191,4.826,4.826,0,0,1,8.955,0,.3.3,0,0,0,.274.191H88.2a.3.3,0,0,0,.274-.191A4.8,4.8,0,0,1,92.95,45.033Z" transform="translate(0 0)" fill="#da3d06"/>
    <path id="Caminho_2113" data-name="Caminho 2113" d="M198.433,124.867a3.217,3.217,0,1,1,3.217-3.217,1.608,1.608,0,0,0,3.217,0,6.445,6.445,0,0,0-4.825-6.23v-1.812a1.608,1.608,0,0,0-3.217,0v1.812a6.434,6.434,0,0,0,1.608,12.663,3.217,3.217,0,1,1-3.217,3.217,1.608,1.608,0,0,0-3.217,0,6.445,6.445,0,0,0,4.825,6.23v1.812a1.608,1.608,0,0,0,3.217,0V137.53a6.434,6.434,0,0,0-1.608-12.663Z" transform="translate(-115.133 -100.742)" fill="#da3d06"/>
  </g>
</svg>
