<svg id="tick_2_" data-name="tick (2)" xmlns="http://www.w3.org/2000/svg" width="52.333" height="52.333" viewBox="0 0 52.333 52.333">
  <g id="Grupo_3030" data-name="Grupo 3030" transform="translate(12.426 6.575)">
    <g id="Grupo_3029" data-name="Grupo 3029">
      <path id="Caminho_2091" data-name="Caminho 2091" d="M159.979,64.907a1.972,1.972,0,0,0-2.789,0L133.528,88.5l-8.537-9.272a1.972,1.972,0,0,0-2.9,2.672l9.928,10.782a1.97,1.97,0,0,0,1.409.636h.042a1.974,1.974,0,0,0,1.392-.575L159.975,67.7A1.972,1.972,0,0,0,159.979,64.907Z" transform="translate(-121.568 -64.327)"/>
    </g>
  </g>
  <g id="Grupo_3032" data-name="Grupo 3032">
    <g id="Grupo_3031" data-name="Grupo 3031">
      <path id="Caminho_2092" data-name="Caminho 2092" d="M50.361,24.194a1.972,1.972,0,0,0-1.972,1.972A22.222,22.222,0,1,1,26.167,3.945a1.972,1.972,0,1,0,0-3.945A26.167,26.167,0,1,0,52.333,26.167,1.972,1.972,0,0,0,50.361,24.194Z"/>
    </g>
  </g>
</svg>
