<svg id="twitter-logo-silhouette" xmlns="http://www.w3.org/2000/svg" width="15.234" height="12.374" viewBox="0 0 15.234 12.374">
  <g id="Grupo_26" data-name="Grupo 26" transform="translate(0 0)">
    <path id="Caminho_16" data-name="Caminho 16" d="M15.235,58.905a6.241,6.241,0,0,1-1.794.492,3.138,3.138,0,0,0,1.374-1.728,6.3,6.3,0,0,1-1.986.759A3.128,3.128,0,0,0,7.5,61.277a8.872,8.872,0,0,1-6.441-3.265,3.129,3.129,0,0,0,.967,4.171,3.126,3.126,0,0,1-1.416-.392v.039a3.128,3.128,0,0,0,2.506,3.064A3.165,3.165,0,0,1,2.3,65a3,3,0,0,1-.588-.058,3.127,3.127,0,0,0,2.919,2.17A6.27,6.27,0,0,1,.746,68.452,6.642,6.642,0,0,1,0,68.409a8.834,8.834,0,0,0,4.79,1.406,8.83,8.83,0,0,0,8.891-8.891l-.01-.4A6.24,6.24,0,0,0,15.235,58.905Z" transform="translate(-0.001 -57.441)" fill="#202a5c"/>
  </g>
</svg>
