<svg id="vegetables" xmlns="http://www.w3.org/2000/svg" width="61" height="61" viewBox="0 0 61 61">
  <g id="Grupo_2982" data-name="Grupo 2982" transform="translate(6.428 53.728)">
    <g id="Grupo_2981" data-name="Grupo 2981">
      <path id="Caminho_2038" data-name="Caminho 2038" d="M55.88,451.219l-.011-.008A1.191,1.191,0,0,0,54.42,453.1l.011.008a1.191,1.191,0,0,0,1.449-1.892Z" transform="translate(-53.953 -450.965)"/>
    </g>
  </g>
  <g id="Grupo_2984" data-name="Grupo 2984" transform="translate(6.428 43.959)">
    <g id="Grupo_2983" data-name="Grupo 2983">
      <path id="Caminho_2039" data-name="Caminho 2039" d="M55.88,369.219l-.011-.008A1.191,1.191,0,0,0,54.42,371.1l.011.008a1.191,1.191,0,0,0,1.449-1.892Z" transform="translate(-53.953 -368.965)"/>
    </g>
  </g>
  <g id="Grupo_2986" data-name="Grupo 2986" transform="translate(6.428 34.189)">
    <g id="Grupo_2985" data-name="Grupo 2985">
      <path id="Caminho_2040" data-name="Caminho 2040" d="M55.88,287.219l-.011-.008A1.191,1.191,0,0,0,54.42,289.1l.011.008a1.191,1.191,0,0,0,1.449-1.892Z" transform="translate(-53.953 -286.965)"/>
    </g>
  </g>
  <g id="Grupo_2988" data-name="Grupo 2988" transform="translate(52.172 53.728)">
    <g id="Grupo_2987" data-name="Grupo 2987">
      <path id="Caminho_2041" data-name="Caminho 2041" d="M439.828,451.214l-.011-.008a1.191,1.191,0,0,0-1.439,1.9l.011.008a1.191,1.191,0,1,0,1.439-1.9Z" transform="translate(-437.906 -450.964)"/>
    </g>
  </g>
  <g id="Grupo_2990" data-name="Grupo 2990" transform="translate(52.173 43.959)">
    <g id="Grupo_2989" data-name="Grupo 2989">
      <path id="Caminho_2042" data-name="Caminho 2042" d="M439.829,369.215l-.011-.008a1.191,1.191,0,0,0-1.439,1.9l.011.008a1.191,1.191,0,1,0,1.439-1.9Z" transform="translate(-437.907 -368.965)"/>
    </g>
  </g>
  <g id="Grupo_2992" data-name="Grupo 2992" transform="translate(52.172 34.189)">
    <g id="Grupo_2991" data-name="Grupo 2991">
      <path id="Caminho_2043" data-name="Caminho 2043" d="M439.829,287.215l-.011-.008a1.191,1.191,0,0,0-1.439,1.9l.011.008a1.191,1.191,0,1,0,1.439-1.9Z" transform="translate(-437.906 -286.965)"/>
    </g>
  </g>
  <g id="Grupo_2994" data-name="Grupo 2994" transform="translate(42.812 39.078)">
    <g id="Grupo_2993" data-name="Grupo 2993">
      <path id="Caminho_2044" data-name="Caminho 2044" d="M360.549,328h-.016a1.191,1.191,0,0,0,0,2.383h.016a1.191,1.191,0,0,0,0-2.383Z" transform="translate(-359.342 -328)"/>
    </g>
  </g>
  <g id="Grupo_2996" data-name="Grupo 2996" transform="translate(15.789 48.848)">
    <g id="Grupo_2995" data-name="Grupo 2995">
      <path id="Caminho_2045" data-name="Caminho 2045" d="M133.735,410h-.015a1.191,1.191,0,0,0,0,2.383h.015a1.191,1.191,0,1,0,0-2.383Z" transform="translate(-132.528 -410)"/>
    </g>
  </g>
  <g id="Grupo_2998" data-name="Grupo 2998" transform="translate(7.592 21.715)">
    <g id="Grupo_2997" data-name="Grupo 2997">
      <path id="Caminho_2046" data-name="Caminho 2046" d="M65.754,182.609a1.191,1.191,0,1,0,.349.844A1.2,1.2,0,0,0,65.754,182.609Z" transform="translate(-63.72 -182.26)"/>
    </g>
  </g>
  <g id="Grupo_3000" data-name="Grupo 3000">
    <g id="Grupo_2999" data-name="Grupo 2999">
      <path id="Caminho_2047" data-name="Caminho 2047" d="M59.809,29.309H54.86a7.089,7.089,0,0,0-.338-12.487,7.094,7.094,0,0,0-9.944-9.085,8.237,8.237,0,0,0-4.748-1.5c-.116,0-.231,0-.346.009A9.218,9.218,0,0,0,22.452,5.234c-.285-.026-.572-.04-.858-.04A9.223,9.223,0,0,0,13.1,10.83q-.378-.115-.769-.2a5.28,5.28,0,0,1,1.444-3.475,3.193,3.193,0,0,1,1.469-.831l-.017,0h0a1.191,1.191,0,0,0-.171-2.369,1.18,1.18,0,0,0-.2.018v0A5.215,5.215,0,0,0,12.29,5.284V1.191A1.191,1.191,0,0,0,11.1,0H8.239A1.191,1.191,0,0,0,7.048,1.191V5.646A14.336,14.336,0,0,0,4.083,2.91,1.191,1.191,0,0,0,2.779,4.9c.039.026,3.644,2.44,4.18,5.912A9.477,9.477,0,0,0,0,19.743c0,1.734.989,5.9,1.959,9.565H1.191A1.191,1.191,0,0,0,0,30.5V59.809A1.191,1.191,0,0,0,1.191,61H59.809A1.191,1.191,0,0,0,61,59.809V30.5A1.191,1.191,0,0,0,59.809,29.309ZM21.595,7.577a6.888,6.888,0,0,1,1.364.136,1.191,1.191,0,0,0,1.36-.77,6.836,6.836,0,0,1,12.794-.249,8.263,8.263,0,0,0-5.533,7.789,1.191,1.191,0,0,0,2.383,0,5.866,5.866,0,0,1,9.758-4.39,1.192,1.192,0,0,0,1.506.061,4.666,4.666,0,0,1,2.823-.94,4.707,4.707,0,0,1,3.779,7.515,1.192,1.192,0,0,0,.665,1.867,4.708,4.708,0,0,1-1.155,9.272,4.754,4.754,0,0,1-.892-.086,1.191,1.191,0,0,0-1.347.77,4.684,4.684,0,0,1-.35.757h-1.5l4.879-6.994a1.191,1.191,0,0,0-.317-1.673L48.332,18.33a1.191,1.191,0,0,0-1.68.376l-1.737,2.876,1.422-7.192a1.191,1.191,0,0,0-.929-1.4l-3.032-.623a1.191,1.191,0,0,0-1.411.949l-.389,2.089H37.8A1.191,1.191,0,0,0,36.6,16.6v6.856a8.83,8.83,0,0,0-8.652-7.124,8.741,8.741,0,0,0-5.3,1.771,8.9,8.9,0,0,0-2.863,3.717,13.248,13.248,0,0,0,.227-2.074,8.855,8.855,0,0,0-1.21-4.466A4.364,4.364,0,0,1,23.771,12.5a1.191,1.191,0,0,0,1.36-.771,4.394,4.394,0,0,1,1.287-1.873A1.191,1.191,0,0,0,24.869,8.05a6.79,6.79,0,0,0-1.593,2q-.188-.011-.376-.01a6.749,6.749,0,0,0-5.722,3.178,9.987,9.987,0,0,0-1.893-1.429A6.838,6.838,0,0,1,21.595,7.577ZM43.56,28.434,48.048,21l1.423.947-5.133,7.358h-.951Zm-1.49-4.749V20.377c.006-.025.013-.05.018-.076l1-5.355.684.141Zm-3.092,3.557a1.217,1.217,0,0,0,.009-.137V17.789h.7v11.52h-.376q0-.112.005-.224A5.176,5.176,0,0,0,38.978,27.242ZM22.637,21.684l-.105,0a6.43,6.43,0,0,1,11.746,2.29,4.969,4.969,0,0,0-4.013,2.11A8.819,8.819,0,0,0,22.637,21.684Zm6.321,7.625H16.316a6.432,6.432,0,0,1,12.642,0Zm5.355-2.95a2.678,2.678,0,0,1,2.621,2.726c0,.075,0,.15-.009.224H31.7c-.006-.074-.009-.149-.009-.224A2.678,2.678,0,0,1,34.313,26.358ZM9.431,2.383h.477v7.989c-.16,0-.319.006-.477.014ZM2.454,18.8a1.2,1.2,0,0,0,.23.023h5.89a1.191,1.191,0,0,0,0-2.383H3.289a7.751,7.751,0,0,1,6.719-3.689c4.2,0,7.625,3.136,7.625,6.991a12.055,12.055,0,0,1-.239,1.94H12.662a1.191,1.191,0,1,0,0,2.383h3.956A8.8,8.8,0,0,0,13.9,29.309H4.425c-1.3-4.859-2.042-8.322-2.042-9.565A6.441,6.441,0,0,1,2.454,18.8ZM58.617,39.078H48.133a1.191,1.191,0,0,0,0,2.383H58.617v7.387H21.041a1.191,1.191,0,0,0,0,2.383H58.617v7.387H2.383V51.23H12.867a1.191,1.191,0,0,0,0-2.383H2.383V41.461H39.959a1.191,1.191,0,0,0,0-2.383H2.383V31.691H58.617Z"/>
    </g>
  </g>
  <g id="Grupo_3002" data-name="Grupo 3002" transform="translate(28.038 6.434)">
    <g id="Grupo_3001" data-name="Grupo 3001">
      <path id="Caminho_2048" data-name="Caminho 2048" d="M236.54,54h-.016a1.191,1.191,0,1,0,0,2.383h.016a1.191,1.191,0,0,0,0-2.383Z" transform="translate(-235.333 -54)"/>
    </g>
  </g>
</svg>
