<svg xmlns="http://www.w3.org/2000/svg" width="17.27" height="12.092" viewBox="0 0 17.27 12.092">
  <path id="youtube_3_" data-name="youtube (3)" d="M16.915-4.19a2.164,2.164,0,0,0-1.522-1.522,50.551,50.551,0,0,0-6.757-.37,52.521,52.521,0,0,0-6.757.356A2.207,2.207,0,0,0,.356-4.19,22.8,22.8,0,0,0,0-.036,22.714,22.714,0,0,0,.356,4.118,2.164,2.164,0,0,0,1.879,5.64a50.643,50.643,0,0,0,6.757.37,52.521,52.521,0,0,0,6.757-.356,2.164,2.164,0,0,0,1.522-1.522,22.806,22.806,0,0,0,.356-4.154,21.641,21.641,0,0,0-.356-4.168Zm-10,6.743V-2.625l4.5,2.589Zm0,0" transform="translate(-0.001 6.082)" fill="#202a5c"/>
</svg>
